<?xml version="1.0" encoding="utf-8"?>
<!-- Generator: Adobe Illustrator 15.0.0, SVG Export Plug-In . SVG Version: 6.00 Build 0)  -->
<!DOCTYPE svg PUBLIC "-//W3C//DTD SVG 1.1//EN" "http://www.w3.org/Graphics/SVG/1.1/DTD/svg11.dtd">
<svg version="1.1" id="Layer_1" xmlns="http://www.w3.org/2000/svg" xmlns:xlink="http://www.w3.org/1999/xlink" x="0px" y="0px"
	 width="123.5px" height="72px" viewBox="0 0 123.5 72" enable-background="new 0 0 123.5 72" xml:space="preserve">
<g>
	<g>
		<path fill="#0B0045" d="M32.549,29.529l-0.08-0.188c-0.448-1.026-1.198-2.146-0.859-4.112c0.017-0.057,0.028-0.115,0.028-0.176
			c0-0.347-0.3-0.629-0.677-0.65L30.958,24.4c-0.01,0-0.018,0-0.028,0c-0.004,0-0.009-0.001-0.014-0.001
			c-0.004,0-0.006,0.001-0.011,0.001c-5.277-0.083-7.87-0.857-10.69-2.738l-0.123-0.08v0l0,0l0,0v0l-0.119,0.08
			c-2.823,1.881-5.415,2.655-10.694,2.738c-0.003,0-0.004-0.001-0.008-0.001c-0.004,0-0.011,0.001-0.014,0.001
			c-0.01,0-0.018,0-0.029,0l-0.002,0.003c-0.377,0.021-0.679,0.303-0.679,0.65c0,0.061,0.012,0.119,0.031,0.176
			c0.335,1.965-0.413,3.085-0.861,4.112l-0.08,0.188C5.041,35.566,4.647,40.37,6.5,43.425c1.498,2.474,4.174,3.42,6.158,3.781
			l0.336,0.058c2.147,0.386,4.819,0.866,6.979,2.468l0.128,0.097l0.112-0.097c2.161-1.602,4.833-2.082,6.98-2.468l0.334-0.058
			c1.984-0.361,4.661-1.308,6.158-3.781C35.539,40.37,35.145,35.566,32.549,29.529z"/>
		<path fill="#0B0045" d="M20.212,51.441h-0.237l-0.083-0.063c-2.327-1.725-5.231-2.244-7.565-2.664l-0.368-0.066
			c-2.249-0.407-5.287-1.483-6.993-4.3c-2.088-3.44-1.66-8.818,1.235-15.548l0.089-0.208c0.466-1.068,0.991-2.273,0.635-4.38
			c-0.027-0.091-0.04-0.169-0.04-0.249c0-0.521,0.686-0.903,1.218-0.977l0.01-0.009l0.188-0.005h0.004
			c5.477-0.087,8.405-0.835,11.596-2.966l0.08-0.052h0.197l0.104,0.052c3.19,2.131,6.118,2.879,11.594,2.966l0.205,0.015
			c0.531,0.073,1.217,0.456,1.217,0.977c0,0.08-0.013,0.158-0.038,0.249c-0.357,2.107,0.17,3.313,0.634,4.376l0.09,0.213
			c2.895,6.729,3.322,12.107,1.236,15.548c-1.706,2.816-4.744,3.893-6.992,4.3l-0.37,0.066c-2.334,0.42-5.24,0.939-7.563,2.664
			L20.212,51.441z M8.292,23.513l-0.041,0.003c-0.338,0.019-0.768,0.269-0.768,0.446c0,0.034,0.03,0.152,0.03,0.152
			c0.386,2.259-0.173,3.542-0.666,4.673L6.76,28.996c-2.83,6.578-3.27,11.795-1.269,15.093c1.595,2.633,4.46,3.646,6.583,4.03
			l0.367,0.064c2.345,0.421,5.244,0.938,7.651,2.648c2.407-1.71,5.309-2.228,7.649-2.648l0.37-0.064
			c2.123-0.385,4.99-1.397,6.584-4.03c1.999-3.298,1.561-8.516-1.27-15.093l-0.089-0.21c-0.494-1.128-1.052-2.412-0.665-4.671
			c0,0,0.029-0.118,0.029-0.152c0-0.177-0.43-0.428-0.766-0.446l-0.063-0.003c-5.53-0.088-8.538-0.839-11.78-2.963
			c-3.246,2.126-6.257,2.876-11.795,2.963H8.292z"/>
		<g>
			<path fill="#FE9914" d="M29.199,41.062c0.514-0.519,0.475-1.504,0.569-2.149c0.151-1.04-0.003-1.102,1.112-1.392
				c1.091-0.281-0.481-0.626-0.805-0.782c-0.893-0.426-0.941,0.079-1.076,0.036c-0.674-0.205-1.085,0.056-1.085,0.056
				c0.407,0.195,0.625,0.433,0.947,0.315c-0.388,1.203-0.618,2.318-2.107,2.727c-1.104,0.301-2.421,0.481-3.423,1.013
				c-0.769,0.407-0.566,0.619-0.566,1.275c0,0.884-0.772,0.948-1.276,1.483c-0.323,0.345-0.518,0.896-0.75,1.299
				c-0.202,0.35-0.552,0.295-0.641,0.602c-0.089-0.307-0.439-0.252-0.642-0.602c-0.23-0.402-0.426-0.954-0.749-1.299
				c-0.503-0.535-1.277-0.6-1.277-1.483c0-0.656,0.203-0.868-0.565-1.275c-1.004-0.531-2.319-0.712-3.423-1.013
				c-1.49-0.408-1.7-1.453-2.087-2.656c0.337-0.009,0.605-0.136,0.802-0.386c-0.329-0.018-0.657-0.035-0.985-0.053
				c0.389-0.202,0.777-0.402,1.167-0.605c0.093-0.047,0.94-0.97,0.593-1.012c-0.116-0.015-0.774,0.973-0.774,0.65
				c0-0.061,0.223-0.528,0.046-0.528c-0.326,0-0.317,0.985-0.824,0.985c-0.251,0,0.285-0.821,0.033-0.821
				c-0.143,0-0.837,1.167-1.292,1.292c-0.433,0.19-1.898,0.501-0.807,0.782c1.116,0.29,0.96,0.352,1.111,1.392
				c0.095,0.646,0.056,1.631,0.569,2.149c-0.192-0.027-2.284-0.414-2.05-0.031c-0.052,0.125,0.558,0.989,0.675,1.111
				c0.314,0.516,0.962,0.6,1.552,0.623c-0.247-0.818-1.132-0.465-1.458-1.318c0.696,0.117,1.36,0.15,2.071,0.272l0.063,0.016
				c0.973,0.363,3.403,0.346,3.807,1.026c0.371,0.623,0.99,0.925,1.698,1.146c1.239,0.384,1.564,1.627,2.741,1.986
				c0,0.001,0.004,0.002,0.006,0.002c0.001,0,0.004,0.002,0.005,0.003c0.001-0.003,0.001-0.004,0.001-0.005
				c1.177-0.359,1.5-1.603,2.741-1.986c0.708-0.221,1.327-0.522,1.696-1.146c0.406-0.681,2.837-0.663,3.809-1.026l0.062-0.016
				c0.712-0.122,1.376-0.155,2.072-0.272c-0.328,0.854-1.212,0.5-1.458,1.318c0.589-0.023,1.238-0.107,1.552-0.623
				c0.116-0.122,0.724-0.986,0.673-1.111C31.483,40.647,29.391,41.034,29.199,41.062z"/>
		</g>
		<g>
			<path fill="#FF1900" d="M24.664,29.694c-0.358,0.001-0.696,0.067-1.011,0.178V29.87l-0.033,0.015
				c-0.022,0.006-0.046,0.018-0.07,0.026l-1.623,0.629l0.73-1.578c0.01-0.019,0.021-0.039,0.028-0.061l0.015-0.031h-0.003
				c0.122-0.283,0.191-0.591,0.189-0.916c-0.004-1.384-1.251-2.503-2.782-2.497c-1.532,0.004-2.77,1.132-2.763,2.517
				c0.002,0.324,0.073,0.632,0.197,0.915h-0.002l0.013,0.03c0.01,0.021,0.021,0.041,0.032,0.063l0.762,1.606l-1.73-0.656
				c-0.021-0.009-0.043-0.017-0.067-0.027l-0.033-0.011v0c-0.314-0.11-0.655-0.171-1.012-0.17c-1.532,0.005-2.771,1.131-2.763,2.516
				c0.007,1.386,1.252,2.503,2.783,2.498c0.358-0.001,0.698-0.066,1.013-0.179v0.003l0.032-0.014
				c0.022-0.007,0.046-0.016,0.069-0.026l1.638-0.636l-0.667,1.438c-0.008,0.02-0.019,0.04-0.028,0.061l-0.013,0.031h0.002
				c-0.121,0.285-0.191,0.592-0.19,0.915c0.007,1.384,1.252,2.504,2.784,2.499c1.531-0.006,2.769-1.132,2.762-2.517
				c0-0.322-0.07-0.631-0.197-0.916h0.002l-0.013-0.03c-0.011-0.02-0.021-0.042-0.031-0.063l-0.662-1.393l1.55,0.587
				c0.023,0.01,0.044,0.016,0.067,0.024l0.033,0.013v-0.002c0.315,0.111,0.655,0.173,1.013,0.173
				c1.532-0.006,2.769-1.132,2.764-2.519C27.444,30.808,26.196,29.689,24.664,29.694z"/>
		</g>
		<g opacity="0.8">
			<path fill="#FE9914" d="M25.196,27.596c-2.8-0.028-5.098,2.001-5.129,4.532C22.866,32.157,25.164,30.128,25.196,27.596z"/>
			<path fill="#FE9914" d="M20.067,32.128c-0.012-2.532-2.29-4.578-5.092-4.567C14.987,30.093,17.264,32.139,20.067,32.128z"/>
			<path fill="#FE9914" d="M15.013,36.73c2.801-0.008,5.063-2.07,5.054-4.602C17.264,32.139,15.003,34.2,15.013,36.73z"/>
			<path fill="#FE9914" d="M20.12,32.129c-0.018,0-0.036,0.001-0.053,0.001c0.011,2.53,2.29,4.576,5.09,4.567
				c0.018,0,0.036-0.002,0.054-0.002C25.2,34.164,22.92,32.12,20.12,32.129z"/>
		</g>
	</g>
	<g>
		<path fill="#FFFFFF" d="M48.839,48.728h-0.92L47.36,46.07l-1.411,2.657h-0.92l-0.325-4.344h1.021L45.9,47.16l1.35-2.776h0.757
			l0.496,2.787l1.058-2.787h1.013L48.839,48.728z"/>
		<path fill="#FFFFFF" d="M54.988,48.212c-0.268,0.268-0.625,0.446-1.053,0.528c-0.497,0.102-1.044,0.066-1.507,0
			c-0.36-0.053-0.634-0.219-0.813-0.456c-0.182-0.25-0.251-0.582-0.194-0.941l0.486-2.959h1.06l-0.512,3.107
			c-0.038,0.245,0.035,0.43,0.173,0.561c0.159,0.147,0.396,0.225,0.646,0.225c0.264,0,0.533-0.077,0.738-0.236
			c0.166-0.133,0.288-0.311,0.326-0.549l0.512-3.107h1.058l-0.489,2.985C55.36,47.707,55.209,47.99,54.988,48.212z"/>
		<path fill="#FFFFFF" d="M59.686,48.728l0.32-1.948h-1.862l-0.318,1.948h-1.041l0.714-4.344h1.039l-0.301,1.836h1.862l0.302-1.836
			h1.039l-0.715,4.344H59.686z"/>
		<path fill="#FFFFFF" d="M63.205,48.728h-1.098l2.692-4.344h0.848l1.26,4.344h-1.099l-0.82-2.931L63.205,48.728z"/>
		<path fill="#FFFFFF" d="M71.223,48.728l-1.479-2.972l-0.487,2.972h-0.961l0.715-4.352h1.086l1.469,2.955l0.484-2.955h0.961
			l-0.716,4.352H71.223z"/>
		<path fill="#FFFFFF" d="M80.47,48.254c-0.429,0.361-0.985,0.517-1.523,0.548c-0.585,0.04-1.162-0.084-1.554-0.388
			c-0.397-0.311-0.549-0.749-0.563-1.225c-0.01-0.494,0.16-1.22,0.461-1.69c0.292-0.457,0.787-0.868,1.341-1.028
			c0.422-0.124,0.896-0.174,1.326-0.112c0.38,0.052,0.728,0.185,0.971,0.422c0.293,0.286,0.396,0.593,0.418,0.976h-1.132
			c0.023-0.209-0.038-0.451-0.107-0.577c-0.067-0.117-0.21-0.249-0.382-0.28c-0.25-0.045-0.492-0.005-0.714,0.096
			c-0.305,0.137-0.551,0.388-0.711,0.653c-0.216,0.347-0.306,0.739-0.358,1.126c-0.054,0.374-0.042,0.784,0.146,1.082
			c0.153,0.23,0.425,0.375,0.744,0.386c0.289,0.006,0.589-0.096,0.81-0.32c0.189-0.185,0.308-0.394,0.393-0.618h1.137
			C81.024,47.642,80.791,47.985,80.47,48.254z"/>
		<path fill="#FFFFFF" d="M86.526,48.135c-0.472,0.429-1.046,0.636-1.641,0.667c-0.444,0.017-0.87-0.026-1.236-0.169
			c-0.34-0.131-0.628-0.343-0.802-0.67c-0.23-0.417-0.27-0.972-0.153-1.511c0.112-0.52,0.364-1.029,0.75-1.404
			c0.273-0.272,0.619-0.456,0.994-0.57c0.32-0.102,0.653-0.149,0.978-0.149c0.401,0,0.789,0.071,1.105,0.243
			c0.288,0.156,0.521,0.382,0.662,0.698c0.166,0.385,0.217,0.871,0.136,1.359C87.229,47.183,86.968,47.736,86.526,48.135z
			 M86.175,45.363c-0.122-0.346-0.505-0.499-0.901-0.487c-0.383,0.006-0.749,0.149-1.008,0.451
			c-0.294,0.356-0.443,0.852-0.503,1.268c-0.047,0.362-0.056,0.939,0.121,1.261c0.179,0.32,0.585,0.438,0.999,0.398
			c0.42-0.042,0.865-0.264,1.063-0.716c0.147-0.331,0.256-0.712,0.306-1.086C86.301,46.065,86.286,45.678,86.175,45.363z"/>
		<path fill="#FFFFFF" d="M89.172,48.728c-0.223,0-0.416-0.069-0.514-0.23c-0.068-0.107-0.096-0.261-0.063-0.457l0.601-3.656h1.032
			l-0.597,3.631c-0.017,0.104,0.087,0.192,0.198,0.192h1.98l-0.354,0.521H89.172z"/>
		<path fill="#FFFFFF" d="M93.87,48.728c-0.225,0-0.417-0.069-0.516-0.23c-0.066-0.107-0.095-0.261-0.063-0.457l0.599-3.656h1.034
			l-0.598,3.631c-0.015,0.104,0.089,0.192,0.2,0.192h1.98l-0.355,0.521H93.87z"/>
		<path fill="#FFFFFF" d="M106.777,45.819c0.008-0.16,0.014-0.32-0.022-0.462c-0.041-0.184-0.144-0.326-0.325-0.41
			c-0.239-0.107-0.603-0.101-0.866,0.018c-0.339,0.149-0.582,0.381-0.757,0.643c-0.191,0.3-0.302,0.637-0.355,0.968
			c-0.06,0.398-0.086,0.81,0.07,1.132c0.117,0.248,0.351,0.428,0.641,0.505c0.266,0.064,0.565,0.035,0.846-0.059
			c0.174-0.055,0.401-0.198,0.623-0.393l0.093-0.571c0.008-0.042-0.024-0.112-0.099-0.112h-0.968l0.09-0.542h1.639
			c0.162,0,0.285,0.094,0.354,0.214c0.046,0.082,0.061,0.184,0.046,0.273l-0.28,1.705h-1.033l0.061-0.361
			c-0.38,0.31-0.866,0.436-1.335,0.44c-0.423,0-0.83-0.083-1.155-0.285c-0.301-0.179-0.547-0.453-0.633-0.768
			c-0.123-0.451-0.117-1.005,0.034-1.526c0.132-0.455,0.375-0.889,0.751-1.216c0.394-0.35,0.888-0.559,1.39-0.647
			c0.508-0.084,1.033-0.041,1.474,0.113c0.249,0.084,0.484,0.254,0.647,0.47c0.164,0.208,0.273,0.57,0.283,0.872H106.777z"/>
		<path fill="#FFFFFF" d="M109.688,48.728c-0.222,0-0.379-0.082-0.47-0.213c-0.077-0.101-0.102-0.23-0.077-0.38l0.542-3.288
			c0.019-0.125,0.119-0.245,0.252-0.333c0.123-0.078,0.284-0.13,0.448-0.13h2.953l-0.358,0.538h-2.098
			c-0.104,0-0.196,0.067-0.211,0.156l-0.189,1.159h2.354l-0.355,0.529h-2.085l-0.202,1.219c-0.021,0.125,0.061,0.203,0.191,0.203
			h3.106l-0.358,0.539H109.688z"/>
		<path fill="#FFFFFF" d="M98.45,48.728c-0.225,0-0.379-0.082-0.472-0.213c-0.076-0.101-0.1-0.23-0.076-0.38l0.542-3.288
			c0.021-0.125,0.118-0.245,0.25-0.333c0.126-0.078,0.284-0.13,0.45-0.13h2.953l-0.358,0.538h-2.1c-0.104,0-0.194,0.067-0.208,0.156
			l-0.189,1.159h2.354l-0.355,0.529h-2.087l-0.2,1.219c-0.021,0.125,0.059,0.203,0.191,0.203h3.106l-0.358,0.539H98.45z"/>
	</g>
	<path fill="#FFFFFF" d="M65.536,29.393c0,0,3.48-1.918-2.2-4.554C63.336,24.839,62.687,27.828,65.536,29.393z"/>
	<path fill="#FFFFFF" d="M64.027,35.083c-1.294,2.232-2.874,4.426-5.015,6.298h2.28c2.023-1.91,3.471-4.065,4.764-6.298H64.027z"/>
	<path fill="#FFFFFF" d="M62.541,29.558c0,0-0.648,2.992,2.201,4.558C64.742,34.116,68.226,32.193,62.541,29.558z"/>
	<path fill="#FFFFFF" d="M109.474,29.431c0.054-0.263,0.313-0.51,0.627-0.51h6.15c0.29,0,0.533,0.151,0.473,0.435l-0.59,2.874h1.861
		l0.616-3.006c0.095-0.454,0.003-0.833-0.212-1.097c-0.285-0.34-0.793-0.529-1.397-0.529h-2.676h-2.092h-2.364
		c-0.521,0-0.973,0.15-1.31,0.378c-0.486,0.321-0.772,0.793-0.871,1.285l-0.61,2.969h1.818L109.474,29.431z"/>
	<polygon fill="#FFFFFF" points="115.085,32.213 115.347,30.946 110.266,30.946 110.005,32.213 	"/>
	<path fill="#FFFFFF" d="M106.313,35.52c0.336-1.739-0.153-3.328-0.808-4.612c0.808-1.287,1.771-2.931,2.348-4.105
		c0.252-0.508,0.261-0.963,0.037-1.301c-0.211-0.303-0.604-0.511-1.148-0.511h-2.971c-0.376,0-0.795,0.113-1.136,0.339
		c-0.361,0.228-0.665,0.585-0.76,1.04l-3.062,14.917h1.819l2.985-14.539c0.043-0.209,0.312-0.396,0.521-0.396h1.589
		c0.169,0,0.304,0.151,0.227,0.321c-0.543,1.323-1.533,2.987-2.431,4.404c0.814,1.324,1.245,3.006,0.836,4.689
		c-0.084,0.303-0.15,0.529-0.33,0.681c-0.174,0.132-0.396,0.208-0.753,0.208h-1.098l-0.276,1.343h1.79
		c0.856,0,1.498-0.379,1.95-0.946C105.984,36.615,106.202,36.068,106.313,35.52z"/>
	<path fill="#FFFFFF" d="M114.196,40c-0.271,0-0.507-0.169-0.449-0.454l0.942-4.586h2.703l0.806-1.307h-11.271l-0.004,0.027
		c0.032,0.205,0.064,0.596,0.011,1.28h2.443c-0.57,2.361-1.401,4.378-4.668,6.326h2.741c2.313-2.099,3.333-3.814,3.852-6.326h1.524
		l-0.985,4.795c-0.096,0.472-0.003,0.832,0.198,1.077c0.229,0.303,0.618,0.454,1.077,0.454h5.532L119.497,40H114.196z"/>
	<path fill="#FFFFFF" d="M47.107,39.263l0.786-3.819h3.621c-0.044-0.43-0.063-0.936-0.07-1.304h-3.283l0.473-2.303H46.71
		l-1.568,7.634c-0.597,0.056-1.853,0.151-2.274,0.171l1.4-6.805h-1.903l-1.422,6.918c-0.338,0.016-1.079,0.056-1.437,0.076
		l-0.265,1.286c4.008-0.228,9.495-0.73,12.585-1.146c-0.069-0.518-0.108-0.916-0.131-1.209
		C50.386,38.938,48.062,39.195,47.107,39.263z"/>
	<path fill="#FFFFFF" d="M51.684,26.294h-8.458l-0.276,1.341h8.733C51.67,27.047,51.673,26.609,51.684,26.294z"/>
	<path fill="#FFFFFF" d="M58.077,28.762c0,0,2.597-1.433-1.644-3.4C56.433,25.361,55.949,27.594,58.077,28.762z"/>
	<path fill="#FFFFFF" d="M55.555,39.98c-0.272,0-0.43-0.149-0.454-0.339c-0.413-2.666-0.461-5.899-0.466-8.526h6.003
		c-0.087-0.482-0.085-0.998-0.069-1.324h-5.892c0.022-1.021,0.106-3.063,0.304-4.935h-1.945c-0.086,1.229-0.218,3.706-0.282,4.935
		h-11.25l-0.272,1.324h11.521c-0.006,3.081,0.129,6.295,0.461,9.056c0.057,0.434,0.27,0.717,0.591,0.888
		c0.262,0.152,0.605,0.209,0.982,0.209h2.221c0.838-0.693,0.963-1.001,1.216-1.287H55.555z"/>
	<path fill="#FFFFFF" d="M73.209,35.689c2.541-2.287,5.025-5.426,6.495-8.298c0.308-0.589,0.359-1.135,0.102-1.514
		c-0.235-0.376-0.732-0.604-1.507-0.604H66.524c0.619,0.558,1.054,1.038,1.091,1.343h10.094c0.165,0,0.418,0.208,0.292,0.414
		c-1.47,2.666-3.198,5.085-5.579,7.299c-1.112-2.118-1.638-4.443-1.869-6.882h-1.88c0.324,2.894,0.902,5.672,2.29,8.186
		c-2.571,2.136-5.186,4.066-7.748,5.749h2.698c1.929-1.344,4.002-2.894,5.844-4.426c1.01,1.514,2.181,3.025,3.379,4.426h2.696
		C76.187,39.622,74.48,37.655,73.209,35.689z"/>
	<path fill="#FFFFFF" d="M90.509,27.742c0,0,2.599-1.434-1.642-3.399C88.867,24.342,88.383,26.573,90.509,27.742z"/>
	<path fill="#FFFFFF" d="M113.313,27.114c0,0,2.599-1.431-1.642-3.397C111.672,23.717,111.188,25.947,113.313,27.114z"/>
	<path fill="#FF1900" d="M94.065,27.679c3.491-1.565,4.073-4.557,4.073-4.557C91.373,25.759,94.065,27.679,94.065,27.679z"/>
	<path fill="#FFFFFF" d="M85.565,27.742c0,0,2.598-1.434-1.642-3.399C83.924,24.342,83.438,26.573,85.565,27.742z"/>
	<path fill="#FFFFFF" d="M82.775,30.057c0.063-0.302,0.355-0.606,0.688-0.606h12.651c0.379,0,0.578,0.246,0.528,0.491l-0.472,2.288
		h1.969l0.383-1.871c0.141-0.681,0.06-1.211-0.221-1.57c-0.334-0.416-0.94-0.624-1.838-0.624h-1.568h-2.195h-9.37
		c-0.647,0-1.18,0.151-1.597,0.454c-0.418,0.302-0.72,0.757-0.846,1.361l-0.455,2.211h1.904L82.775,30.057z"/>
	<path fill="#FFFFFF" d="M89.686,34.802c1.338-0.511,3.188-1.268,4.545-1.873c0.439-0.208,0.736-0.529,0.852-0.888
		c0.109-0.321,0.032-0.661-0.21-0.908c-0.208-0.209-0.535-0.341-1.019-0.341H83.649l-0.264,1.287h9.305
		c-1.544,0.7-3.139,1.342-4.724,1.928l-0.257,1.248H76.646c0.129,0.302,0.379,0.783,0.794,1.267h10.009l-0.621,3.024
		c-0.043,0.209-0.326,0.474-0.599,0.474h-6.206c0.155,0.338,0.43,0.817,0.866,1.284h5.559c0.584,0,1.12-0.169,1.517-0.472
		c0.372-0.284,0.625-0.7,0.729-1.21l0.639-3.101h8.596l0.256-1.247h-8.596L89.686,34.802z"/>
</g>
<path fill="#0B0045" d="M15.467,23.123"/>
<path fill="#FFFFFF" d="M19.555,52.417h-0.252l-0.088-0.066c-2.48-1.819-5.574-2.369-8.063-2.812l-0.393-0.07
	c-2.396-0.43-5.634-1.564-7.452-4.539c-2.225-3.631-1.769-9.309,1.317-16.414l0.096-0.219c0.495-1.128,1.056-2.4,0.676-4.624
	c-0.029-0.096-0.042-0.179-0.042-0.263c0-0.55,0.73-0.954,1.297-1.031l0.011-0.01l0.201-0.005h0.005
	c5.836-0.091,8.957-0.882,12.357-3.131l0.086-0.055h0.21l0.112,0.055c3.399,2.25,6.52,3.04,12.354,3.131l0.219,0.016
	c0.565,0.077,1.296,0.481,1.296,1.031c0,0.084-0.014,0.167-0.041,0.263c-0.38,2.224,0.182,3.496,0.675,4.62l0.098,0.225
	c3.084,7.104,3.54,12.782,1.317,16.413c-1.817,2.975-5.056,4.109-7.451,4.539l-0.395,0.07c-2.489,0.442-5.583,0.992-8.061,2.812
	L19.555,52.417z M6.852,22.935l-0.043,0.002c-0.36,0.02-0.817,0.285-0.817,0.472c0,0.036,0.032,0.16,0.032,0.16
	c0.411,2.386-0.185,3.74-0.71,4.933l-0.094,0.22c-3.017,6.944-3.483,12.451-1.353,15.934c1.699,2.778,4.754,3.848,7.017,4.253
	l0.39,0.07c2.5,0.443,5.59,0.99,8.155,2.794c2.564-1.804,5.657-2.351,8.152-2.794l0.393-0.07c2.263-0.405,5.318-1.475,7.017-4.253
	c2.129-3.482,1.663-8.99-1.354-15.934L33.542,28.5c-0.525-1.191-1.122-2.545-0.708-4.931c0,0,0.03-0.125,0.03-0.16
	c0-0.187-0.458-0.452-0.815-0.472l-0.068-0.002c-5.892-0.094-9.099-0.887-12.553-3.128c-3.461,2.244-6.668,3.036-12.572,3.128H6.852
	z"/>
<path fill="#FFFFFF" d="M19.615,50.485h-0.232l-0.081-0.06c-2.284-1.621-5.133-2.112-7.425-2.507l-0.361-0.063
	c-2.207-0.383-5.189-1.395-6.863-4.047c-2.049-3.237-1.629-8.299,1.212-14.635l0.088-0.195c0.457-1.006,0.972-2.14,0.623-4.124
	c-0.027-0.085-0.039-0.159-0.039-0.234c0-0.491,0.673-0.851,1.194-0.919l0.011-0.009l0.184-0.004h0.005
	c5.374-0.082,8.248-0.787,11.379-2.792l0.079-0.049h0.194l0.103,0.049c3.131,2.005,6.004,2.709,11.377,2.792l0.202,0.014
	c0.521,0.068,1.193,0.429,1.193,0.919c0,0.075-0.013,0.148-0.038,0.234c-0.35,1.983,0.167,3.117,0.622,4.119l0.09,0.2
	c2.841,6.335,3.26,11.397,1.212,14.634c-1.673,2.652-4.655,3.664-6.86,4.047l-0.364,0.063c-2.292,0.395-5.143,0.886-7.423,2.507
	L19.615,50.485z M7.916,24.199l-0.039,0.002c-0.332,0.018-0.753,0.254-0.753,0.421c0,0.031,0.029,0.142,0.029,0.142
	c0.379,2.128-0.169,3.335-0.654,4.399l-0.087,0.196C3.634,35.55,3.204,40.461,5.167,43.565c1.564,2.478,4.378,3.432,6.462,3.792
	l0.358,0.063c2.302,0.395,5.147,0.883,7.51,2.491c2.361-1.608,5.208-2.097,7.507-2.491l0.363-0.063
	c2.083-0.36,4.896-1.314,6.462-3.792c1.961-3.104,1.531-8.015-1.247-14.206l-0.087-0.198c-0.483-1.062-1.033-2.269-0.651-4.397
	c0,0,0.027-0.111,0.027-0.142c0-0.167-0.422-0.403-0.75-0.421l-0.063-0.002c-5.425-0.084-8.379-0.79-11.56-2.789
	c-3.188,2.001-6.141,2.707-11.577,2.789H7.916z"/>
</svg>
